/* XPM */
static char * win_xpm[] = {
/* width height ncolors cpp [x_hot y_hot] */
"64 64 48 1 0 0",
/* colors */
" 	s iconGray2	m white	c #bdbdbdbdbdbd",
".	s iconGray5	m black	c #737373737373",
"X	c #808080804040",
"o	c #808040404040",
"O	c #404080804040",
"+	c #404040404040",
"@	c #BFBF80804040",
"#	c #808000004040",
"$	c #808080800000",
"%	c #BFBF80808080",
"&	c #8080BFBF4040",
"*	c #BFBF40408080",
"=	c #404080800000",
"-	c #404040400000",
";	c #404040408080",
":	c #404000004040",
"?	c #BFBF40404040",
">	c #808080808080",
",	c #808040400000",
"<	c #808040408080",
"1	c #404000000000",
"2	c #404080808080",
"3	s iconColor1	m black	c black",
"4	c #000040400000",
"5	c #BFBF80800000",
"6	c #BFBF40400000",
"7	c #000040404040",
"8	c #BFBFBFBF4040",
"9	c #BFBF00004040",
"0	c #BFBFBFBF8080",
"q	c #FFFF80808080",
"w	c #FFFFBFBF8080",
"e	c #FFFF80804040",
"r	c #FFFFBFBF4040",
"t	c #FFFFFFFF8080",
"y	c #BFBFFFFF4040",
"u	c #BFBFFFFF8080",
"i	c #8080BFBF8080",
"p	c #FFFF40404040",
"a	c #808000000000",
"s	c #BFBFBFBF0000",
"d	c #FFFFBFBFBFBF",
"f	c #FFFF80800000",
"g	c #BFBF00000000",
"h	c #BFBFBFBFBFBF",
"j	s iconColor5	m black	c blue",
"k	s iconColor2	m white	c white",
"l	s iconColor6	m white	c yellow",
/* pixels */
"                                                               .",
"                                                              ..",
"                                                             ...",
"                                                            ....",
"                                                           .....",
"                                                          ......",
"      XoXooOX+@XXooO#$Xo%XoXXo&*=o-o-;o=:Xooo-oXo#=X++o-++......",
"      ?>?O,<$X?Oo>o$ooXo1o=?Xo,Xo+@+o$+ooOo-XXo2-XoOo-o3o4......",
"      X@o@<@+X,%-XoXo+5>X+oXoXooXX6XoO?5Xo$Xo7,-+X-XoO-o=:......",
"      ?X%X+@XXoOoX%+XX>oX$oo@+8+@o@X,@Xo,X?Xo6Oo=Oo+-oo>1o......",
"      +5o$Xo-?>X,>,OoX+XooX,XXo@$>@X@o@@o?oo?ooX9-@+oO-o4>......",
"      @<O?X?OX,o+XOoXoXoX?XXo8oX?8%?&%@8<5?X5X,@,,oo-oXoXo......",
"      +$%+@Oo+X+-<X@-%+@+X@?8X@X@%8%0@@Xqo8,@*Xo@Xo,@+oOo-......",
"      XXoXOoXo-oX+,o<,X@,@*X%@Xq%8Xw08@?0@X?X5o@,%,@Xoo-X+......",
"      6Xo-oXXoo-1X+@Xo1@+o&e8%0@0e0@0e>w@@%@o@Xo@?8@X6O?+X......",
"      %oXX-oX:OoX+oX?&?$0e000@w0%w@w%%w%@@0X@@@5<$X?X?X5<$......",
"      XXo@o+o1,+o-o?Xo0%r0%0t%w0yq0eu%t%8%e%8o@Xooo-$Xo<oO......",
"      :$o:X-o2ooOo@Xo@@@%@0qw000w008q00q%@08<@X,?$O?O#-o-o......",
"      X<XXooX$o+,+@@?8%%8%@0%0w%0q00ew0@%0@0@%@@X?X?-@1oX+......",
"      +oXo+$+oO#O?,X%@%r%8q0w%w8%8%80%w%r0%@@0X@@@oX,#X+,O......",
"      -oo-o+o$O1ooXX%@@8%q8%8e0e0e%wr00%%%8%@%X?@X?X,o,$oX......",
"      >,Ooooo21+o$?X@8%@%8%e%8e@@%u?0%0e8X8o0@%@i6o,oo+ooo......",
"      oXo,+-,++$@%@%@@r@@*&X@@0@r@8p@w8%0q@w@@@,@XX?a@?-@X......",
"      +X+o++o,+@o@%X@X%@@@$?@Xp8<@*8%8%%@@0@%%@%@,o,oXooO?......",
"      ,+X-o+ooo,?$o?Xos%%@%@o?$?XX@X@e8@%8e0eo@@o@o?oo5O?+......",
"      :o+XoX-,o5XoXo-oo0@w06ie?o6dO,>w?>e%8%o8?$?X$%X@@oXo......",
"      o+6O+++O?+?@?Xo@060%@0e>%@%@@0%8%8%8e@0?X@@?Xo@o$@=?......",
"      X+>o$;,oX,@6>5?X@@@@%@0%@@%@0e0w%8w@@eX@5%$?$@oX@oX<......",
"      +$oXo?Oo+o%X@@@o?0@w@0e0w@X0%@@@@d@w@0%@X@@>@?8@oX$o......",
"      @>0,X<O,o@5q@?o@0e%06w@%@w0e%r@@r0@@%?@-?%X?0?>@XOo@......",
"      X+$<OX++o,@@%8,0@08%%8%r@wX%@e00?@@?5@o?@X@,0@%oX?OX......",
"      -X%+@X+,+oo6X,X@@eXq8q8?0e%e0@0eXe8@@o?X?@o@?>o$XoX*......",
"      @oXX?OX<X=?o?X?X@X?@@Xq@0e0@0q@@0,<@o,oX@@%@o@X*X$<$......",
"      XXXo<s<$o>o?&?Xo@?XX6060q8%wr?&?@o@,Xoo@o0@@0X*&o$o@......",
"      >o&oXoXoO6XooXoo,?,?6Xp@,%r%@@q&?8<X?$oX?X@X?iXo@oXO......",
"      >X%XO@oO?Oo=?,+?o@?XoX?o5@X@8%8?0o%,X+?oX?0oX@oXX%$o......",
"      oX+X?>@oXX+XoX?O?o,%fo?@o5@?6@?X@@o@o6O@oX%5o>Xo@0oX......",
"      $@oXX-ooX,X+,X?1@,?@-p@,o,?$X6X@@Xo,X*@?i?i?X@@XXoXo......",
"      >X@2oO$O*X+X:X,oX?ogXq@e%@,,o6X?oo$,#$?&o8<&%@o5oX@o......",
"      oX+$<$+%,X-,o@oooX?0?X5?0@@o@o,X?o+?X@>0@@@&?XoXXXX>......",
"      <$o>oXoX@oXXo-<,?,o@%@,?8e0?$oX,ooo&*X@@@XX@%X@o@oXo......",
"      XXoX?XX,X+o++0?oo?o$X,Xo?Xo?oXaoo8@0@X%8%@o0@%XX6>o8......",
"      oXo+@+O+@oX,Xo?X6oo?o?,?,?$oa,oo6X<@8%r%0@X%8qo@2?8?......",
"      @Xo=+oX$oXoo%,o-o,oo5oX@?-oooo?X@%rhq%8*,oX%@%X60o8>......",
"      o2@oX$*OX-@XO*+X:6ogo?$o,o?-o@@@q8%80e@0X+5>>@%o8X%o......",
"      oXX%oXoO?XoX@%8w0%?X+,o,o,@?8e%w@d8@%Xi>,XX*@8oXo%@0......",
"      6O?XoXXo2@,X+8q0008?@%X?o@?8%@0w0%@<@X?&X#$@>@%X@X<&......",
"      <XXXXXo>,XoX@%%0@w@0@@@@@5%5h8%%8@%X>X%X@>?X@@oX@>8?......",
"      %XoX+5+$@<XoXXXo0%%@XoX?@@0r%XX@d&X>o@oX<XX?X>8oi@X%......",
"      jjjjjjjjjjjjjjjjjjjjjjjjjjjjjjjjjjjjjjjjjjjjjjjjjjjj......",
"      jjjjjjjjjjjjjjjjjjjjjjjjjjjjjjjjjjjjjjjjjjjjjjjjjjjj......",
"      jjkjjjkjjkjjjkjjkkkjjkkkjjjkkkkjjjjjjjjjlljjjjjlljjj......",
"      jjkjjjkjjjkjkjjjjkjjjkjjkjjkjjjjjjjjjjjljjljjjljjljj......",
"      jjkjjjkjjjjkjjjjjkjjjkjjkjjkkkjjjjjjjjjljjljjjjjljjj......",
"      jjkjkjkjjjkjkjjjjkjjjkjjkjjkjjjjjjjjjjjljjljjjjljjjj......",
"      jjkkkkkjjkjjjkjjkkkjjkkkjjjkkkkjjjjjjjjjlljjljlllljj......",
"      jjjjjjjjjjjjjjjjjjjjjjjjjjjjjjjjjjjjjjjjjjjjjjjjjjjj......",
"      jjjjjjjjjjjjjjjjjjjjjjjjjjjjjjjjjjjjjjjjjjjjjjjjjjjj......",
"     ...........................................................",
"    ............................................................",
"   .............................................................",
"  ..............................................................",
" ...............................................................",
"................................................................"};
